<svg xmlns="http://www.w3.org/2000/svg" viewBox="0 0 800 460" width="800" height="460" font-family="Inter, Arial, sans-serif">
  <rect width="800" height="460" fill="#f5f5f5"/>
  <rect x="0" y="0" width="220" height="460" fill="#ffffff"/>
  <line x1="220" y1="0" x2="220" y2="460" stroke="#e7e5e4"/>
  <text x="24" y="42" fill="#0c0a09" font-size="22" font-family="Georgia, serif">Prahari</text>
  <rect x="16" y="70" width="188" height="26" rx="4" fill="#f0efed"/>
  <rect x="16" y="104" width="150" height="12" rx="3" fill="#e7e5e4"/>
  <rect x="16" y="128" width="168" height="12" rx="3" fill="#e7e5e4"/>
  <rect x="16" y="152" width="140" height="12" rx="3" fill="#e7e5e4"/>
  <text x="260" y="70" fill="#0c0a09" font-size="34" font-family="Georgia, serif" font-weight="bold">How everything connects</text>
  <text x="262" y="102" fill="#777169" font-size="15">Interactive equipment and document graph</text>
  <rect x="260" y="140" width="500" height="150" rx="16" fill="#ffffff" stroke="#e7e5e4"/>
  <rect x="284" y="168" width="120" height="20" rx="10" fill="#f0efed"/>
  <rect x="284" y="204" width="452" height="12" rx="3" fill="#e7e5e4"/>
  <rect x="284" y="228" width="420" height="12" rx="3" fill="#e7e5e4"/>
  <rect x="284" y="252" width="300" height="12" rx="3" fill="#e7e5e4"/>
  <rect x="260" y="306" width="242" height="120" rx="16" fill="#ffffff" stroke="#e7e5e4"/>
  <rect x="518" y="306" width="242" height="120" rx="16" fill="#ffffff" stroke="#e7e5e4"/>
  <circle cx="742" cy="418" r="26" fill="#ffffff" stroke="#d6d3d1"/>
  <g transform="translate(726,410) scale(0.34)"><path d="M36 22 C28 7 16 7 16 22 C16 37 28 37 36 22 C44 7 56 7 56 22 C56 37 44 37 36 22 Z" fill="none" stroke="#0c0a09" stroke-width="6" stroke-linecap="round" stroke-linejoin="round"/><path d="M60 22 C52 7 40 7 40 22 C40 37 52 37 60 22 C68 7 80 7 80 22 C80 37 68 37 60 22 Z" fill="none" stroke="#0c0a09" stroke-width="6" stroke-linecap="round" stroke-linejoin="round"/></g>
</svg>
